<svg width="13" height="12" viewBox="0 0 13 12" fill="none" xmlns="http://www.w3.org/2000/svg">
<path d="M11.5 1.5H9.76719L8.91562 0.222625C8.86996 0.154144 8.8081 0.0979935 8.73554 0.0591576C8.66297 0.0203217 8.58193 1.40662e-06 8.49963 0H4.49963C4.41731 8.26618e-06 4.33627 0.0203382 4.2637 0.0591853C4.19113 0.0980323 4.12928 0.154195 4.08362 0.222687L3.23206 1.5H1.5C1.10231 1.50045 0.721041 1.65863 0.439833 1.93983C0.158625 2.22104 0.000446645 2.60231 0 3V10C0.000446645 10.3977 0.158625 10.779 0.439833 11.0602C0.721041 11.3414 1.10231 11.4996 1.5 11.5H11.5C11.8977 11.4996 12.279 11.3414 12.5602 11.0602C12.8414 10.779 12.9996 10.3977 13 10V3C12.9996 2.60231 12.8414 2.22104 12.5602 1.93983C12.279 1.65863 11.8977 1.50045 11.5 1.5V1.5ZM12 10C11.9998 10.1326 11.9471 10.2596 11.8534 10.3534C11.7596 10.4471 11.6326 10.4998 11.5 10.5H1.5C1.36744 10.4998 1.24036 10.4471 1.14663 10.3534C1.0529 10.2596 1.00017 10.1326 1 10V3C1.00017 2.86744 1.0529 2.74036 1.14663 2.64663C1.24036 2.5529 1.36744 2.50017 1.5 2.5H3.49963C3.58194 2.49999 3.66298 2.47966 3.73555 2.44081C3.80812 2.40197 3.86997 2.34581 3.91563 2.27731L4.76719 1H8.23206L9.08362 2.27738C9.12928 2.34586 9.19114 2.40201 9.26371 2.44084C9.33628 2.47968 9.41732 2.5 9.49963 2.5H11.5C11.6326 2.50017 11.7596 2.5529 11.8534 2.64663C11.9471 2.74036 11.9998 2.86744 12 3V10ZM6.5 3.5C5.9561 3.5 5.42442 3.66128 4.97218 3.96346C4.51995 4.26563 4.16747 4.69512 3.95933 5.19762C3.75119 5.70012 3.69673 6.25305 3.80284 6.7865C3.90895 7.31995 4.17086 7.80995 4.55546 8.19454C4.94005 8.57914 5.43005 8.84105 5.9635 8.94716C6.49695 9.05327 7.04988 8.99881 7.55238 8.79067C8.05488 8.58253 8.48437 8.23005 8.78654 7.77782C9.08871 7.32558 9.25 6.7939 9.25 6.25C9.24917 5.52091 8.95918 4.82192 8.44363 4.30637C7.92808 3.79082 7.22909 3.50083 6.5 3.5V3.5ZM6.5 8C6.15388 8 5.81554 7.89736 5.52775 7.70507C5.23997 7.51278 5.01566 7.23947 4.88321 6.9197C4.75076 6.59993 4.7161 6.24806 4.78363 5.90859C4.85115 5.56912 5.01782 5.25731 5.26256 5.01256C5.50731 4.76782 5.81912 4.60115 6.15859 4.53363C6.49806 4.4661 6.84993 4.50076 7.1697 4.63321C7.48947 4.76566 7.76278 4.98997 7.95507 5.27775C8.14736 5.56554 8.25 5.90388 8.25 6.25C8.24949 6.71397 8.06495 7.15879 7.73687 7.48687C7.40879 7.81495 6.96397 7.99949 6.5 8V8Z" fill="white"/>
</svg>
