<svg width="13" height="14" viewBox="0 0 13 14" fill="none" xmlns="http://www.w3.org/2000/svg">
<path d="M0.960938 0.163694C0.871742 0.0655641 0.747218 0.00688594 0.614758 0.000568305C0.482299 -0.00574933 0.352755 0.0408111 0.254625 0.130007C0.156495 0.219202 0.0978167 0.343727 0.0914991 0.476186C0.0851815 0.608645 0.131742 0.738189 0.220937 0.836319L1.73331 2.50001H1.5C1.10231 2.50045 0.721041 2.65863 0.439833 2.93984C0.158625 3.22105 0.000446645 3.60232 0 4.00001V11C0.000446645 11.3977 0.158625 11.779 0.439833 12.0602C0.721041 12.3414 1.10231 12.4996 1.5 12.5H10.8243L12.0391 13.8363C12.0833 13.8849 12.1366 13.9243 12.196 13.9523C12.2554 13.9803 12.3197 13.9963 12.3853 13.9994C12.4509 14.0026 12.5165 13.9928 12.5782 13.9705C12.64 13.9483 12.6968 13.9142 12.7454 13.87C12.794 13.8258 12.8334 13.7725 12.8614 13.7131C12.8894 13.6537 12.9054 13.5894 12.9086 13.5238C12.9117 13.4582 12.9019 13.3927 12.8797 13.3309C12.8575 13.2691 12.8233 13.2123 12.7791 13.1637L0.960938 0.163694ZM5.09856 6.20176L7.41075 8.74519C7.06345 8.9567 6.65334 9.04068 6.25085 8.98274C5.84836 8.92479 5.47861 8.72852 5.20508 8.42763C4.93154 8.12674 4.7713 7.74 4.75187 7.33383C4.73243 6.92766 4.85501 6.52739 5.09856 6.20176V6.20176ZM1.5 11.5C1.36744 11.4998 1.24036 11.4471 1.14663 11.3534C1.0529 11.2596 1.00017 11.1326 1 11V4.00001C1.00017 3.86745 1.0529 3.74037 1.14663 3.64664C1.24036 3.5529 1.36744 3.50017 1.5 3.50001H2.64244L4.41831 5.45351C4.0741 5.8522 3.85164 6.34138 3.7774 6.86285C3.70316 7.38432 3.78027 7.91614 3.99955 8.39506C4.21883 8.87398 4.57105 9.27983 5.01433 9.56435C5.4576 9.84887 5.97327 10.0001 6.5 10C7.06968 9.99883 7.62506 9.82155 8.09006 9.49244L9.91519 11.5H1.5ZM13 4.00001V10.6268C13 10.7594 12.9473 10.8866 12.8536 10.9804C12.7598 11.0741 12.6326 11.1268 12.5 11.1268C12.3674 11.1268 12.2402 11.0741 12.1464 10.9804C12.0527 10.8866 12 10.7594 12 10.6268V4.00001C11.9998 3.86745 11.9471 3.74037 11.8534 3.64664C11.7596 3.5529 11.6326 3.50017 11.5 3.50001H9.49963C9.4173 3.50001 9.33625 3.47968 9.26367 3.44084C9.19109 3.40199 9.12922 3.34582 9.08356 3.27732L8.232 2.00001H4.76512C4.68477 2.10084 4.56857 2.16673 4.44079 2.18392C4.31301 2.20112 4.18352 2.16829 4.07937 2.09228C3.97522 2.01628 3.90446 1.90299 3.88185 1.77605C3.85925 1.64911 3.88655 1.51835 3.95806 1.41107L4.0835 1.22269C4.12916 1.15418 4.19104 1.09801 4.26363 1.05916C4.33623 1.02031 4.41729 0.999994 4.49963 1.00001H8.49963C8.58194 1.00001 8.66298 1.02034 8.73555 1.05919C8.80812 1.09804 8.86997 1.1542 8.91562 1.22269L9.76719 2.50001H11.5C11.8977 2.50045 12.279 2.65863 12.5602 2.93984C12.8414 3.22105 12.9996 3.60232 13 4.00001Z" fill="white"/>
</svg>
