<svg width="14" height="14" viewBox="0 0 14 14" fill="none" xmlns="http://www.w3.org/2000/svg">
<path d="M0.7195 0L0 0.7195L13 13.7195L13.719 13.0005L10.5785 9.8595C11.059 9.328 11.36 8.631 11.36 7.8595V5.8595H10.36V7.8595C10.36 8.3555 10.1785 8.8085 9.8755 9.1565L9.1725 8.453C9.2915 8.289 9.36 8.078 9.36 7.8595V1.8595C9.36 1.3085 8.911 0.8595 8.36 0.8595H5.36C4.809 0.8595 4.36 1.3085 4.36 1.8595V3.641L0.7195 0ZM5.36 1.8595H8.36V7.641L5.36 4.641V1.8595ZM2.36 5.8595V7.8595C2.36 9.514 3.7055 10.8595 5.36 10.8595H6.36V11.8595H4.36V12.8595H9.36V11.8595H7.36V10.8595H8.36C8.487 10.8595 8.612 10.844 8.735 10.828L7.766 9.8595H5.36C4.2565 9.8595 3.36 8.963 3.36 7.8595V5.8595H2.36ZM4.36 6.4535V7.8595C4.36 8.4105 4.809 8.8595 5.36 8.8595H6.7665L5.7665 7.8595H5.36V7.453L4.36 6.4535Z" fill="white"/>
</svg>
